<svg width="178" height="170" viewBox="0 0 178 170" fill="none" xmlns="http://www.w3.org/2000/svg">
<path d="M41.8147 95.8225L46.094 74.4205L49.5174 49.1273L52.9408 74.4205L57.2201 95.8225H84.1184L99.0348 35.751H75.0708L72.3809 61.4091L70.4247 82.5679L67.0013 61.5307L61.4994 35.751H37.2909L32.278 61.5307L28.61 82.5679L26.6538 61.4091L23.964 35.751H0L14.9163 95.8225H41.8147Z" fill="black"/>
<path d="M130.862 97.0386C140.643 97.0386 147.123 92.4177 149.691 89.4992L143.7 73.0829C141.743 76.123 138.565 78.0686 135.875 78.0686C133.063 78.0686 131.473 76.4878 131.473 73.3261V52.2889H146.145V35.751H131.473V19.2131L109.465 28.9413V35.751H100.907V52.2889H109.465V76.4878C109.465 88.1616 115.212 97.0386 130.862 97.0386Z" fill="black"/>
<path d="M41.8148 170L46.094 148.598L49.5175 123.305L52.9409 148.598L57.2202 170H84.1185L99.0348 109.928H75.0709L72.3811 135.587L70.4248 156.745L67.0014 135.708L61.4995 109.928H37.2909L32.2781 135.708L28.6101 156.745L26.6539 135.587L23.964 109.928H7.33109e-05L14.9164 170H41.8148Z" fill="black"/>
<path d="M123.837 170V139.721C123.837 129.993 128.483 125.25 133.495 125.25C137.041 125.25 138.508 127.561 138.508 130.966C138.508 134.614 136.063 139.235 133.862 141.788H154.036C155.748 138.748 158.193 132.546 158.193 125.25C158.193 115.279 154.281 108.712 143.766 108.712C131.417 108.712 125.671 119.9 123.837 130.236V109.928H101.829V170H123.837Z" fill="black"/>
<path d="M166.018 23.9557C172.62 23.9557 178 19.0916 178 11.917C178 4.8641 172.62 4.83204e-06 166.018 4.83204e-06C159.416 4.83204e-06 154.036 4.8641 154.036 11.917C154.036 19.0916 159.416 23.9557 166.018 23.9557ZM166.018 15.5651C164.062 15.5651 162.839 14.2275 162.839 11.917C162.839 9.6066 164.062 8.39056 166.018 8.39056C167.974 8.39056 169.197 9.6066 169.197 11.917C169.197 14.2275 167.974 15.5651 166.018 15.5651Z" fill="black"/>
</svg>
